<svg width="97" height="98" xmlns="http://www.w3.org/2000/svg" xmlns:xlink="http://www.w3.org/1999/xlink" xml:space="preserve" overflow="hidden"><defs><clipPath id="clip0"><rect x="1053" y="510" width="97" height="98"/></clipPath><clipPath id="clip1"><rect x="1054" y="511" width="96" height="96"/></clipPath><clipPath id="clip2"><rect x="1054" y="511" width="96" height="96"/></clipPath><clipPath id="clip3"><rect x="1054" y="511" width="96" height="96"/></clipPath></defs><g clip-path="url(#clip0)" transform="translate(-1053 -510)"><g clip-path="url(#clip1)"><g clip-path="url(#clip2)"><g clip-path="url(#clip3)"><path d="M1132 562C1129.2 562 1127 560.4 1127 558.5 1127 556.6 1129.2 555 1132 555 1134.8 555 1137 556.6 1137 558.5 1137 560.4 1134.8 562 1132 562ZM1127 573C1124.2 573 1122 571.4 1122 569.5 1122 567.6 1124.2 566 1127 566 1129.8 566 1132 567.6 1132 569.5 1132 571.4 1129.8 573 1127 573ZM1116 545C1113.2 545 1111 543.4 1111 541.5 1111 539.6 1113.2 538 1116 538 1118.8 538 1121 539.6 1121 541.5 1121 543.4 1118.8 545 1116 545ZM1116 579C1113.2 579 1111 577.4 1111 575.5 1111 573.6 1113.2 572 1116 572 1118.8 572 1121 573.6 1121 575.5 1121 577.4 1118.8 579 1116 579ZM1102 582C1099.2 582 1097 580.4 1097 578.5 1097 576.6 1099.2 575 1102 575 1104.8 575 1107 576.6 1107 578.5 1107 580.4 1104.8 582 1102 582ZM1096.6 541.6C1098.2 540 1100.3 539.7 1101.4 540.8 1102.5 541.9 1102.1 544 1100.6 545.6 1099 547.2 1096.9 547.5 1095.8 546.4 1094.6 545.3 1095 543.1 1096.6 541.6ZM1088 580C1085.2 580 1083 578.4 1083 576.5 1083 574.6 1085.2 573 1088 573 1090.8 573 1093 574.6 1093 576.5 1093 578.4 1090.8 580 1088 580ZM1127 545C1129.8 545 1132 546.6 1132 548.5 1132 550.4 1129.8 552 1127 552 1124.2 552 1122 550.4 1122 548.5 1122 546.6 1124.2 545 1127 545ZM1102 531C1079.3 531 1082.9 539.9 1085 542L1090 547C1093.2 550.3 1089.3 554 1085.6 552.4L1073.1 547C1064.3 543.2 1062 553.9 1062 559 1062 574.5 1079.9 587 1102 587 1124.1 587 1142 574.5 1142 559 1142 543.5 1124.1 531 1102 531Z" fill="#000000" fill-rule="nonzero" fill-opacity="1"/></g></g></g></g></svg>