<svg width="58" height="58" xmlns="http://www.w3.org/2000/svg" xmlns:xlink="http://www.w3.org/1999/xlink" xml:space="preserve" overflow="hidden"><defs><clipPath id="clip0"><rect x="758" y="246" width="58" height="58"/></clipPath><clipPath id="clip1"><rect x="759" y="247" width="57" height="57"/></clipPath><clipPath id="clip2"><rect x="759" y="247" width="57" height="57"/></clipPath><clipPath id="clip3"><rect x="759" y="247" width="57" height="57"/></clipPath></defs><g clip-path="url(#clip0)" transform="translate(-758 -246)"><g clip-path="url(#clip1)"><g clip-path="url(#clip2)"><g clip-path="url(#clip3)"><path d="M805.312 258.875 795.219 258.875 795.219 255.906C795.219 253.591 793.378 251.75 791.062 251.75L783.938 251.75C781.622 251.75 779.781 253.591 779.781 255.906L779.781 258.875 769.688 258.875C768.381 258.875 767.312 259.944 767.312 261.25L767.312 263.625 807.688 263.625 807.688 261.25C807.688 259.944 806.619 258.875 805.312 258.875ZM783.344 255.906C783.344 255.55 783.581 255.312 783.938 255.312L791.062 255.312C791.419 255.312 791.656 255.55 791.656 255.906L791.656 258.875 783.344 258.875 783.344 255.906Z" fill="#000000" fill-rule="nonzero" fill-opacity="1"/><path d="M770.875 296.875C770.875 298.181 771.944 299.25 773.25 299.25L801.75 299.25C803.056 299.25 804.125 298.181 804.125 296.875L804.125 266 770.875 266 770.875 296.875ZM795.219 269.562 798.781 269.562 798.781 295.688 795.219 295.688 795.219 269.562ZM785.719 269.562 789.281 269.562 789.281 295.688 785.719 295.688 785.719 269.562ZM776.219 269.562 779.781 269.562 779.781 295.688 776.219 295.688 776.219 269.562Z" fill="#000000" fill-rule="nonzero" fill-opacity="1"/></g></g></g></g></svg>