<svg width="96" height="97" xmlns="http://www.w3.org/2000/svg" xmlns:xlink="http://www.w3.org/1999/xlink" xml:space="preserve" overflow="hidden"><defs><clipPath id="clip0"><rect x="1096" y="400" width="96" height="97"/></clipPath><clipPath id="clip1"><rect x="1096" y="401" width="96" height="96"/></clipPath><clipPath id="clip2"><rect x="1096" y="401" width="96" height="96"/></clipPath><clipPath id="clip3"><rect x="1096" y="401" width="96" height="96"/></clipPath></defs><g clip-path="url(#clip0)" transform="translate(-1096 -400)"><g clip-path="url(#clip1)"><g clip-path="url(#clip2)"><g clip-path="url(#clip3)"><path d="M1124.9 438 1175 438 1175 433C1175 430.8 1173.2 429 1171 429L1141 429 1130 421.7C1129.3 421.3 1128.6 421 1127.8 421L1109 421C1106.8 421 1105 422.8 1105 425L1105 474C1105 474.2 1117.9 442.7 1117.9 442.7 1119.1 439.9 1121.8 438 1124.9 438Z" fill="#000000" fill-rule="nonzero" fill-opacity="1"/><path d="M1183 446C1183 443.9 1181.5 442.2 1179.4 442L1124.9 442C1123.4 442 1122.1 442.9 1121.5 444.2L1108 477 1169 477 1182.6 447.8C1182.9 447.2 1183 446.6 1183 446Z" fill="#000000" fill-rule="nonzero" fill-opacity="1"/></g></g></g></g></svg>