<svg width="33" height="34" xmlns="http://www.w3.org/2000/svg" xmlns:xlink="http://www.w3.org/1999/xlink" xml:space="preserve" overflow="hidden"><defs><clipPath id="clip0"><rect x="652" y="274" width="33" height="34"/></clipPath><clipPath id="clip1"><rect x="653" y="275" width="32" height="32"/></clipPath><clipPath id="clip2"><rect x="653" y="275" width="32" height="32"/></clipPath><clipPath id="clip3"><rect x="653" y="275" width="32" height="32"/></clipPath></defs><g clip-path="url(#clip0)" transform="translate(-652 -274)"><g clip-path="url(#clip1)"><g clip-path="url(#clip2)"><g clip-path="url(#clip3)"><path d="M669 299.333C665.667 299.333 663 296.667 663 293.333 663 290 665.667 287.333 669 287.333 672.333 287.333 675 290 675 293.333 675 296.667 672.333 299.333 669 299.333ZM662.333 288.667 658.333 288.667 658.333 286 662.333 286 662.333 288.667ZM681 283.333 674.333 283.333 672.333 280 665.667 280 663.667 283.333 657 283.333C656.267 283.333 655.667 283.933 655.667 284.667L655.667 300.667C655.667 301.4 656.267 302 657 302L681 302C681.733 302 682.333 301.4 682.333 300.667L682.333 284.667C682.333 283.933 681.733 283.333 681 283.333Z" fill="#000000" fill-rule="nonzero" fill-opacity="1"/><path d="M669 290C667.133 290 665.667 291.467 665.667 293.333 665.667 295.2 667.133 296.667 669 296.667 670.867 296.667 672.333 295.2 672.333 293.333 672.333 291.467 670.867 290 669 290ZM669 298C666.4 298 664.333 295.933 664.333 293.333 664.333 290.733 666.4 288.667 669 288.667 671.6 288.667 673.667 290.733 673.667 293.333 673.667 295.933 671.6 298 669 298Z" fill="#000000" fill-rule="nonzero" fill-opacity="1"/></g></g></g></g></svg>