<svg width="98" height="97" xmlns="http://www.w3.org/2000/svg" xmlns:xlink="http://www.w3.org/1999/xlink" xml:space="preserve" overflow="hidden"><defs><clipPath id="clip0"><rect x="642" y="525" width="98" height="97"/></clipPath><clipPath id="clip1"><rect x="643" y="526" width="96" height="96"/></clipPath><clipPath id="clip2"><rect x="643" y="526" width="96" height="96"/></clipPath><clipPath id="clip3"><rect x="643" y="526" width="96" height="96"/></clipPath></defs><g clip-path="url(#clip0)" transform="translate(-642 -525)"><g clip-path="url(#clip1)"><g clip-path="url(#clip2)"><g clip-path="url(#clip3)"><path d="M729 548 729 597 653 597 653 548 647 548 647 604 682 604C682 605.7 683.3 607 685 607L697 607C698.7 607 700 605.7 700 604L735 604 735 548 729 548Z" fill="#000000" fill-rule="nonzero" fill-opacity="1"/><path d="M725 542 657 542 657 593 725 593 725 542ZM663 548 689 548 689 587 663 587 663 548ZM719 587 693 587 693 548 719 548 719 587Z" fill="#000000" fill-rule="nonzero" fill-opacity="1"/><path d="M699 558 713 558 713 561 699 561Z" fill="#000000" fill-rule="nonzero" fill-opacity="1"/><path d="M699 564 713 564 713 567 699 567Z" fill="#000000" fill-rule="nonzero" fill-opacity="1"/><path d="M699 570 708.7 570 708.7 573 699 573Z" fill="#000000" fill-rule="nonzero" fill-opacity="1"/></g></g></g></g></svg>