<svg width="50" height="49" xmlns="http://www.w3.org/2000/svg" xmlns:xlink="http://www.w3.org/1999/xlink" xml:space="preserve" overflow="hidden"><defs><clipPath id="clip0"><rect x="562" y="197" width="50" height="49"/></clipPath><clipPath id="clip1"><rect x="563" y="198" width="48" height="48"/></clipPath><clipPath id="clip2"><rect x="563" y="198" width="48" height="48"/></clipPath><clipPath id="clip3"><rect x="563" y="198" width="48" height="48"/></clipPath></defs><g clip-path="url(#clip0)" transform="translate(-562 -197)"><g clip-path="url(#clip1)"><g clip-path="url(#clip2)"><g clip-path="url(#clip3)"><path d="M586.99 203C576.502 203 568 211.502 568 221.99 568 232.477 576.502 240.979 586.99 240.979 597.477 240.979 605.979 232.477 605.979 221.99 605.979 221.989 605.979 221.988 605.979 221.988 605.983 211.505 597.487 203.004 587.004 203 586.999 203 586.994 203 586.99 203ZM591.589 222.896C588.823 225.658 586.039 228.444 583.24 231.255 580.86 228.864 578.475 226.479 576.084 224.1L578.475 221.71 583.24 226.474C585.552 224.128 587.852 221.798 590.14 219.484 592.425 217.171 593.69 215.93 596.06 213.639 596.127 213.572 596.198 213.507 596.276 213.439 596.351 213.375 596.418 213.303 596.476 213.223L598.899 215.613C596.084 218.413 594.356 220.133 591.589 222.895Z" fill="#00B050" fill-rule="nonzero" fill-opacity="1"/></g></g></g></g></svg>